<svg width="142" height="20" viewBox="0 0 142 20" fill="none" xmlns="http://www.w3.org/2000/svg">
<g clip-path="url(#clip0_2860_15674)">
<path d="M14.6454 15.9233V19.0746H0.929688V18.1447L9.33692 5.17788H2.02186V2.02654H14.62V2.95648L6.18738 15.9233H14.6454Z" fill="#181B1D"/>
<path d="M37.3588 10.5506C37.3588 15.5617 33.3456 19.3845 28.4181 19.3845C23.4906 19.3845 19.5283 15.5617 19.5283 10.5506C19.5283 5.53957 23.4906 1.71662 28.4181 1.71662C33.3457 1.71662 37.3588 5.53957 37.3588 10.5506ZM23.0588 10.5506C23.0588 13.8569 25.3194 16.1557 28.4435 16.1557C31.5169 16.1557 33.8282 13.8569 33.8282 10.5506C33.8282 7.27015 31.5169 4.94539 28.4435 4.94539C25.3194 4.94539 23.0588 7.27015 23.0588 10.5506Z" fill="#181B1D"/>
<path d="M61.2728 10.5506C61.2728 15.5617 57.2597 19.3845 52.3321 19.3845C47.4046 19.3845 43.4423 15.5617 43.4423 10.5506C43.4423 5.53957 47.4046 1.71662 52.3321 1.71662C57.2597 1.71662 61.2728 5.53957 61.2728 10.5506ZM46.9728 10.5506C46.9728 13.8569 49.2334 16.1557 52.3575 16.1557C55.4309 16.1557 57.7422 13.8569 57.7422 10.5506C57.7422 7.27015 55.4309 4.94539 52.3575 4.94539C49.2334 4.94539 46.9728 7.27015 46.9728 10.5506Z" fill="#181B1D"/>
<path d="M83.0499 5.95286L80.4591 7.81256C79.3415 6.00445 77.7668 4.94539 75.6586 4.94539C72.5345 4.94539 70.2485 7.27015 70.2485 10.5765C70.2485 13.8569 72.5345 16.1558 75.6586 16.1558C77.7668 16.1558 79.3415 15.0968 80.4591 13.2886L83.0499 15.1483C81.6021 17.7572 78.8844 19.3845 75.6332 19.3845C70.6549 19.3845 66.718 15.5617 66.718 10.5506C66.718 5.53957 70.6549 1.71661 75.6586 1.71661C78.8844 1.71662 81.5767 3.34392 83.0499 5.95286Z" fill="#181B1D"/>
<path d="M120.024 4.94539L117.687 6.77943C116.875 5.53957 115.859 4.81627 114.487 4.81627C113.369 4.81627 112.404 5.33284 112.404 6.46942C112.404 7.45096 113.141 7.86424 114.36 8.43258L116.265 9.28491C118.907 10.4732 120.405 11.8422 120.405 14.2702C120.405 17.4473 117.865 19.3845 114.538 19.3845C111.642 19.3845 109.306 17.8864 108.061 15.6132L110.423 13.8052C111.337 15.0968 112.531 16.285 114.538 16.285C116.011 16.285 116.925 15.5874 116.925 14.3992C116.925 13.2886 116.113 12.9011 114.792 12.2813L112.988 11.4547C110.601 10.344 108.925 8.94914 108.925 6.54696C108.925 3.60227 111.337 1.71663 114.487 1.71663C117.154 1.71662 119.034 3.0856 120.024 4.94539Z" fill="#181B1D"/>
<path d="M42.1591 2.3376C42.139 2.79723 41.9446 3.23107 41.6167 3.54806C41.2888 3.86504 40.8529 4.04052 40.4005 4.03766C39.5104 4.03766 38.642 3.24282 38.642 2.3376C38.657 1.87425 38.8492 1.43514 39.1776 1.11357C39.5059 0.791994 39.9447 0.613308 40.4005 0.615475C40.6277 0.608926 40.854 0.648507 41.066 0.731904C41.278 0.815301 41.4715 0.940841 41.6352 1.10118C41.799 1.26153 41.9296 1.45346 42.0196 1.66575C42.1095 1.87804 42.1569 2.10645 42.1591 2.3376Z" fill="#181B1D"/>
<path d="M96.1423 1.81937C95.9389 1.75385 95.7271 1.71924 95.5138 1.71664C95.3105 1.71741 95.1085 1.74903 94.9145 1.81044L87.4622 19.0746H91.1451L92.0848 16.8531H98.9428L99.8825 19.0746H103.566L96.1423 1.81937ZM93.304 13.986L95.5138 8.2517L97.7236 13.986L93.304 13.986Z" fill="#181B1D"/>
<path d="M133.647 1.81937C133.443 1.75385 133.232 1.71924 133.018 1.71664C132.815 1.71741 132.613 1.74903 132.419 1.81044L124.967 19.0746H128.649L129.589 16.8531H136.447L137.387 19.0746H141.07L133.647 1.81937ZM130.808 13.986L133.018 8.2517L135.228 13.986L130.808 13.986Z" fill="#181B1D"/>
</g>
<defs>
<clipPath id="clip0_2860_15674">
<rect width="142" height="20" fill="white"/>
</clipPath>
</defs>
</svg>
