<svg width="125" height="56" viewBox="0 0 125 56" fill="none" xmlns="http://www.w3.org/2000/svg">
<path d="M53.3917 29.6438C53.3917 44.5947 41.3748 56 26.6197 56C11.8647 56 0 44.5947 0 29.6438C0 14.6933 11.8647 3.28737 26.6197 3.28737C41.3748 3.28737 53.3917 14.6933 53.3917 29.6438ZM10.5718 29.6438C10.5718 39.5083 17.3408 46.3669 26.6958 46.3669C35.8987 46.3669 42.8198 39.5083 42.8198 29.6438C42.8198 19.8565 35.8987 12.9205 26.6958 12.9205C17.3408 12.9205 10.5718 19.8565 10.5718 29.6438Z" fill="#181B1D"/>
<path d="M125 29.6438C125 44.5947 112.983 56 98.2281 56C83.473 56 71.6083 44.5947 71.6083 29.6438C71.6083 14.6933 83.473 3.28737 98.228 3.28737C112.983 3.28737 125 14.6933 125 29.6438ZM82.1802 29.6438C82.1802 39.5083 88.9491 46.3669 98.3042 46.3669C107.507 46.3669 114.428 39.5083 114.428 29.6438C114.428 19.8565 107.507 12.9205 98.3042 12.9205C88.9491 12.9205 82.1802 19.8565 82.1802 29.6438Z" fill="#181B1D"/>
<path d="M67.7658 5.14008C67.7057 6.51139 67.1236 7.80578 66.1417 8.75152C65.1599 9.69726 63.8546 10.2208 62.5 10.2123C59.8346 10.2123 57.2341 7.84084 57.2341 5.14008C57.2793 3.75767 57.8546 2.44757 58.8379 1.48815C59.8212 0.528733 61.1349 -0.00438116 62.5 0.00208295C63.1804 -0.0174563 63.8578 0.100635 64.4926 0.349452C65.1274 0.598269 65.7069 0.97282 66.1972 1.45121C66.6874 1.9296 67.0787 2.50222 67.348 3.13561C67.6174 3.76899 67.7594 4.45043 67.7658 5.14008Z" fill="#181B1D"/>
</svg>
